<svg width="4" height="17" viewBox="0 0 4 17" fill="none" xmlns="http://www.w3.org/2000/svg">
<path d="M0.587014 2.06218C0.587014 1.5929 0.754111 1.19117 1.0883 0.856975C1.4225 0.5228 1.82423 0.355713 2.29351 0.355713C2.76278 0.355713 3.16452 0.5228 3.49871 0.856975C3.8329 1.19117 4 1.5929 4 2.06218C4 2.53147 3.8329 2.9332 3.49871 3.26738C3.16452 3.60157 2.76278 3.76867 2.29351 3.76867C1.82423 3.76867 1.4225 3.60157 1.0883 3.26738C0.754111 2.9332 0.587014 2.53147 0.587014 2.06218ZM0.587014 8.62571C0.587014 8.15644 0.75411 7.7547 1.0883 7.42051C1.4225 7.08632 1.82423 6.91922 2.29351 6.91922C2.76278 6.91922 3.16452 7.08632 3.49871 7.42051C3.8329 7.7547 4 8.15644 4 8.62571C4 9.09499 3.8329 9.49672 3.49871 9.83092C3.16452 10.1651 2.76278 10.3322 2.29351 10.3322C1.82423 10.3322 1.4225 10.1651 1.0883 9.83092C0.75411 9.49672 0.587014 9.09499 0.587014 8.62571ZM0.587013 15.1892C0.587013 14.72 0.75411 14.3182 1.0883 13.984C1.4225 13.6499 1.82423 13.4828 2.29351 13.4828C2.76278 13.4828 3.16452 13.6499 3.49871 13.984C3.8329 14.3182 4 14.72 4 15.1892C4 15.6585 3.8329 16.0603 3.49871 16.3945C3.16452 16.7286 2.76278 16.8957 2.29351 16.8957C1.82423 16.8957 1.4225 16.7286 1.0883 16.3945C0.75411 16.0603 0.587013 15.6585 0.587013 15.1892Z" fill="white"/>
</svg>
